<svg width="42" height="63" viewBox="0 0 42 63" fill="none" xmlns="http://www.w3.org/2000/svg">
<path fill-rule="evenodd" clip-rule="evenodd" d="M16.3484 1.39044C15.3734 2.42841 15.3989 2.04426 15.3786 16.0019C15.3606 28.4687 15.3524 28.786 15.0457 28.8657C14.5585 28.9926 14.5357 29.1526 13.914 29.0344V17.7417C13.914 5.28716 13.9732 6.02245 12.8783 4.87502C11.3339 3.25619 8.41457 3.97148 7.43482 5.85656C7.22262 6.26463 7.1878 7.98846 7.18126 18.4284C7.17538 27.797 7.12829 30.5648 6.9725 30.6933C6.65598 30.9551 6.1319 30.9866 5.74003 31.0646V21.7843C5.74003 15.6228 5.68167 12.3502 5.56609 12.0462C5.32953 11.4231 4.62412 10.7007 3.98786 10.4299C2.54287 9.81476 0.692447 10.573 0.208549 11.9785C-0.102388 12.8822 -0.0515476 35.6848 0.267564 38.4241C0.403088 39.587 0.550874 40.6395 0.595994 40.7629C1.51998 45.7405 2.44485 50.4518 3.5347 55.0135C3.76962 55.9975 4.09511 57.2417 4.25777 57.7784C4.42043 58.3151 4.72564 59.3295 4.93604 60.0326C5.23357 61.0271 5.42876 61.3924 5.81523 61.6782C6.52947 62.2065 6.78156 62.2377 10.5112 62.2611C13.3294 62.2788 13.9727 62.2385 14.4466 62.0149C15.3356 61.5951 15.3201 61.6588 16.1058 55.2262C16.2236 54.261 16.3984 53.5359 16.5566 53.3559C17.5703 52.2016 17.8133 50.0493 16.9384 48.7624C16.1232 47.5631 15.0057 46.8815 13.5651 46.8815C11.9388 46.8815 10.6728 47.8728 10.0108 49.2365C9.38459 50.5256 9.76912 51.8506 10.2199 53.1126C9.09122 54.7322 7.01934 55.89 4.98672 55.1441C3.86656 51.1426 2.79741 47.0847 1.97429 40.5384C2.15411 40.4997 3.72515 40.2943 4.75916 40.0718L6.63916 39.6673C7.65626 40.6943 8.66075 41.5976 10.2104 41.592C13.3393 41.3912 13.7749 38.3036 15.4953 39.1967C16.4356 39.9412 16.9575 40.1322 18.0261 40.1224C19.453 40.1094 20.6454 39.5215 21.4708 38.4241C22.0073 37.7106 22.178 37.5953 22.8617 37.4832C24.3869 37.2332 28.6387 35.7578 30.5987 35.6494C30.4354 36.545 29.7912 38.4763 29.5841 38.8694C29.1831 39.6304 24.6732 42.3837 23.1228 44.2319C20.4005 47.4769 18.8283 51.39 18.8236 54.9322C18.8213 56.7487 19.373 60.2556 19.8053 61.1703C20.7241 63.1148 24.6027 62.2056 26.4726 62.1697C27.0739 61.6852 28.1635 59.7957 28.883 59.6793C29.7074 59.5458 31.3925 58.9042 31.9981 58.493C33.0195 57.7997 34.0934 56.5217 35.0017 54.9187C37.1879 51.0606 39.1273 45.2615 39.991 40.9451C40.5997 37.9038 40.7238 37.1326 40.88 35.4153C41.3448 30.3114 40.8485 26.1151 39.6471 24.9924C37.5392 23.0217 35.2072 26.3664 34.6098 28.0151C34.2171 29.0986 33.6628 31.2604 33.4628 32.4877C33.3714 33.0488 32.9953 38.4908 33.011 39.0234C33.0154 39.1741 32.6919 39.5641 32.2918 39.8902C30.981 40.9587 30.5568 42.4604 31.0652 44.232C31.2448 44.8578 29.4762 48.8586 28.5467 50.3582C26.9148 52.9915 26.8157 56.0322 30.4254 56.96C31.3173 57.1893 31.3741 57.5105 30.5889 57.8874C28.9668 58.6659 27.2222 58.4038 26.0582 57.2062C22.9371 53.9951 24.7067 48.3388 26.9049 45.1163C27.7473 43.8806 28.4559 42.6411 29.3345 41.4538C29.9666 40.5995 32.3332 34.5969 31.5508 34.6025C28.3301 34.6267 24.8779 35.9007 21.7296 36.545C20.8895 36.717 20.7819 36.7871 20.6224 37.2684C19.8335 39.6463 16.9117 39.2363 15.7177 37.5681C15.0395 37.7055 12.7696 37.8047 12.7696 38.4989C12.7696 39.5978 11.0822 40.4476 10.1883 40.4536C7.25655 40.4727 6.09797 35.9556 9.57836 35.3239C11.1615 35.0365 11.8166 35.4501 12.2792 36.3098C12.6555 37.0093 15.5488 36.566 15.5488 35.9556C15.5488 33.8973 18.7098 33.4232 19.8891 34.6832L20.574 35.4149C23.9927 34.739 28.0549 34.1141 31.0793 33.3996C30.2041 28.4828 30.6509 23.1849 30.5472 18.236C30.5083 4.96203 30.4983 4.57723 30.1802 3.94423C28.8758 1.34879 24.168 1.9005 23.7402 4.87941C23.7306 4.94658 23.7227 10.3076 23.7227 16.7929V28.5843H22.4149V16.0392C22.4149 6.89437 22.3628 3.32099 22.2227 2.85567C21.4926 0.432003 18.1173 -0.493246 16.3484 1.39044ZM20.1195 2.01189C21.0505 2.79126 21.1071 3.05052 21.1071 6.54307V9.72709L16.6783 9.63666L16.6987 6.46516C16.7099 4.71652 16.2053 3.16471 17.4581 2.07011C18.2156 1.40833 19.3685 1.38312 20.1195 2.01189ZM28.9397 4.28821C29.2591 4.69221 29.281 4.92203 29.281 7.8577C29.281 10.6161 29.2492 11.0015 29.017 11.0479C27.7762 11.2951 26.2585 10.9926 24.9917 10.9378L24.9877 8.17289C24.983 4.73174 25.0386 4.46484 25.8877 3.85299C26.9011 3.1227 28.176 3.32284 28.9397 4.28821ZM12.3969 6.12557C12.7482 6.64439 12.7696 6.83306 12.7696 9.41677V12.1576H8.3557V9.33106V6.50436C8.4936 5.26175 11.2864 4.48693 12.3969 6.12557ZM21.0253 15.0038V19.0698L19.1453 19.117C16.3134 19.1881 16.6057 19.6349 16.6452 15.2954C16.6639 13.2566 16.6822 11.4641 16.6861 11.3122C16.7038 10.6187 20.2277 10.9296 21.0253 10.9378V15.0038ZM3.3861 11.5139C4.59854 11.9472 4.4322 13.4587 4.28327 16.4336C3.86124 16.8643 1.86052 16.4876 1.24435 16.4676C1.24435 14.9026 0.711851 10.5577 3.3861 11.5139ZM29.281 12.3581V16.324V20.2896C28.6119 20.2896 25.1993 20.638 24.9874 20.0863C24.9446 19.9746 24.9121 18.2477 24.9155 16.2488C24.9204 13.3509 24.9681 12.5683 25.1512 12.3861C25.8562 11.6848 28.3551 12.1113 29.281 12.3581ZM12.7317 17.4028L12.6879 21.3468H8.43744L8.39362 17.4028L8.34981 13.4587H12.7755L12.7317 17.4028ZM4.35046 25.0876H1.26462C1.0848 24.1259 1.16114 18.129 1.35764 17.8936C1.80014 17.3632 3.68469 17.7466 4.35046 17.7687V25.0876ZM21.1071 24.3484V28.4069C20.471 28.5029 16.6959 28.8592 16.6902 28.6258C16.6773 28.0673 16.6655 20.5058 16.6776 20.4116C16.7121 20.1388 20.6032 20.2896 21.1071 20.2896V24.3484ZM29.281 25.7381C29.281 29.7599 29.2616 30.0481 28.9905 30.0481C27.8032 30.0481 25.0365 29.2596 25.0208 27.89C25.0154 27.4221 24.9738 25.9469 24.9284 24.612C24.8831 23.277 24.8888 22.0145 24.9413 21.8064C25.1479 20.9884 28.4357 21.4281 29.281 21.4281V25.7381ZM12.7345 25.7381C12.76 27.3483 12.7418 28.8239 12.6941 29.0173C12.5106 29.7598 9.3927 30.2107 8.57476 30.2107C8.39804 30.2107 8.3557 29.4875 8.3557 26.4653V22.7198L12.6879 22.8106L12.7345 25.7381ZM39.1864 26.6326C40.0628 28.8113 39.9065 31.3458 39.9072 33.6568C38.5176 32.813 37.2618 32.4877 34.5572 33.3996C34.3623 33.2058 35.5241 28.7377 36.1053 27.4459C36.7093 26.1024 38.4537 24.812 39.1864 26.6326ZM4.35046 31.9998C2.87914 32.6504 2.55219 32.8943 1.3086 33.4636C1.14136 33.4636 1.10507 26.5814 1.27165 26.4158C2.06812 26.4158 3.78532 26.3074 4.4322 26.3074C4.4322 27.2663 4.35046 30.4393 4.35046 31.9998ZM26.5933 30.4458C27.4597 30.6074 29.608 31.8354 29.608 32.1689C29.8018 33.029 23.0852 33.7536 21.7239 33.9346C21.3973 33.978 21.1787 33.9866 20.4631 33.4904C19.2584 32.6549 17.3471 32.7317 16.0392 33.4034C15.2218 33.7888 14.314 34.5207 14.314 35.4343C13.9957 35.5779 13.3716 35.5923 13.2673 35.4413C11.8148 32.3453 5.06349 34.2953 6.24698 38.5498C6.11129 38.6896 5.98051 38.7183 3.86656 39.0735C3.05374 39.21 2.20218 39.36 1.97429 39.4068C1.6045 39.4826 1.55562 39.4356 1.51998 38.9693C1.49791 38.6819 1.41421 37.9851 1.33394 37.4209C1.24256 36.7795 1.24795 36.1784 1.34832 35.8167C2.87915 31.9998 13.3463 30.387 17.347 29.896C20.538 29.5043 23.5037 29.8698 26.5933 30.4458ZM39.6486 36.0658C39.5723 36.7408 38.5189 43.7321 37.9368 41.555C37.4956 39.904 35.7444 39.156 34.1854 39.156C34.1854 38.2106 34.2117 37.2698 34.2918 36.3269C34.5142 33.707 39.9267 33.6062 39.6486 36.0658ZM35.575 40.6007C36.8022 41.3642 37.0507 41.8614 36.9297 43.3121C36.8166 44.6687 35.8802 45.499 34.4633 45.499C33.0858 45.499 31.8354 44.1125 31.9936 42.7604C32.217 40.8515 34.1269 39.6999 35.575 40.6007ZM27.3165 42.2055C27.315 42.2727 26.8736 42.9847 26.3356 43.7879C23.9609 47.3334 21.9275 52.4201 24.0492 56.5574C24.5362 57.5073 25.5464 58.5548 26.42 59.0159C27.6095 59.6436 26.8435 60.3168 26.2021 61.0312C24.6935 61.0697 22.8321 61.415 21.3695 61.0501C20.7211 60.8881 20.3851 59.579 20.0463 55.8939C19.9212 54.5334 20.3137 51.8594 20.8596 50.354C21.6815 48.0871 23.0862 45.9968 25.2918 43.7587C26.7697 42.259 27.325 41.8331 27.3165 42.2055ZM35.6289 50.8662C35.1988 51.8078 33.4315 56.7352 31.815 56.1564C29.3359 55.2685 27.5807 54.309 29.2099 51.68C29.5834 51.0773 31.7113 46.1496 32.2841 46.1496C33.3211 46.7537 35.0468 47.1901 36.5704 46.1115C36.9124 45.8693 37.2235 45.7025 37.2618 45.7405C37.8286 46.3044 35.9008 50.271 35.6289 50.8662ZM14.8005 48.3293C16.5753 49.364 16.715 51.8254 15.0623 52.9398C14.3461 53.4227 12.9204 53.4455 12.1631 52.9862C10.8226 52.1731 10.5731 49.742 11.7257 48.7224C12.6949 47.8649 13.7687 47.7277 14.8005 48.3293ZM11.4618 53.9306C11.7257 54.6882 14.4953 54.7695 14.9692 54.4639C15.0101 54.5046 14.9692 55.0475 14.8783 55.6702C14.7875 56.293 14.6152 57.6758 14.4953 58.7432C14.3253 60.2575 14.2128 60.7308 13.9828 60.8982C13.7626 61.0584 12.8797 61.1124 10.4906 61.1119C6.14693 61.1111 6.39002 61.2797 5.49105 57.6455C5.34032 57.0358 5.26692 56.4872 5.3279 56.4264C6.88439 56.96 10.0722 55.8267 11.4618 53.9306Z" fill="black"/>
</svg>
